<svg width="1000" height="130" viewBox="0 0 1000 130" fill="none" xmlns="http://www.w3.org/2000/svg">
<path d="M949.803 130C917.87 130 899.097 111.351 899.097 82.9254C899.097 54.3185 917.677 33.316 950.384 33.316C984.252 33.316 1002.44 57.0344 999.735 88.9003H922.515C923.676 104.109 934.708 110.808 950.384 110.808C963.351 110.808 971.479 106.463 973.995 99.7636H997.8C994.897 116.783 976.124 130 949.803 130ZM949.61 52.3269C935.095 52.3269 924.45 58.8449 922.709 72.062H975.737C973.995 58.4828 964.706 52.508 949.61 52.3269Z" fill="#FC534F"/>
<path d="M840.945 130C809.786 130 790.239 110.989 790.239 81.658C790.239 52.8701 809.786 33.316 841.525 33.316C868.04 33.316 887.587 46.8952 889.909 69.3462H866.298C864.556 58.4828 854.299 52.508 840.751 52.508C823.72 52.508 813.656 63.1903 813.656 81.658C813.656 100.669 824.107 110.627 841.138 110.627C853.912 110.627 862.814 105.738 865.137 95.9614H888.941C886.038 116.964 866.878 130 840.945 130Z" fill="#FC534F"/>
<path d="M681.98 127.465V35.8508H704.237V47.2574C710.817 38.3856 722.042 33.316 735.589 33.316C757.265 33.316 775.07 45.8089 775.07 71.881V127.465H751.846V78.0369C751.846 60.6555 743.911 52.8701 729.009 52.8701C715.075 52.8701 705.204 61.0176 705.204 76.5884V127.465H681.98Z" fill="#FC534F"/>
<path d="M617.503 130C585.57 130 566.797 111.351 566.797 82.9254C566.797 54.3185 585.376 33.316 618.083 33.316C651.952 33.316 670.144 57.0344 667.435 88.9003H590.215C591.376 104.109 602.407 110.808 618.083 110.808C631.05 110.808 639.179 106.463 641.695 99.7636H665.499C662.596 116.783 643.824 130 617.503 130ZM617.309 52.3269C602.794 52.3269 592.15 58.8449 590.408 72.062H643.437C641.695 58.4828 632.405 52.508 617.309 52.3269Z" fill="#FC534F"/>
<path d="M417.097 130C385.164 130 366.391 111.351 366.391 82.9254C366.391 54.3185 384.97 33.316 417.677 33.316C451.546 33.316 469.738 57.0344 467.029 88.9003H389.809C390.97 104.109 402.001 110.808 417.677 110.808C430.644 110.808 438.773 106.463 441.289 99.7636H465.093C462.19 116.783 443.418 130 417.097 130ZM416.903 52.3269C402.388 52.3269 391.744 58.8449 390.002 72.062H443.03C441.289 58.4828 431.999 52.508 416.903 52.3269Z" fill="#FC534F"/>
<path d="M292.964 127.463L257.354 35.8489H281.933L311.931 114.065L339.799 35.8489H363.798L329.929 127.463H292.964Z" fill="#FC534F"/>
<path d="M205.434 130C173.501 130 154.728 111.351 154.728 82.9254C154.728 54.3185 173.308 33.316 206.015 33.316C239.884 33.316 258.076 57.0344 255.366 88.9003H178.146C179.307 104.109 190.339 110.808 206.015 110.808C218.982 110.808 227.11 106.463 229.626 99.7636H253.431C250.528 116.783 231.755 130 205.434 130ZM205.241 52.3269C190.726 52.3269 180.081 58.8449 178.34 72.062H231.368C229.626 58.4828 220.337 52.508 205.241 52.3269Z" fill="#FC534F"/>
<path d="M114.053 127.464V0H136.89V127.464H114.053Z" fill="#FC534F"/>
<path d="M50.706 130C19.547 130 0 110.989 0 81.658C0 52.8701 19.547 33.316 51.2866 33.316C77.8008 33.316 97.3478 46.8952 99.6702 69.3462H76.059C74.3172 58.4828 64.0599 52.508 50.5125 52.508C33.4814 52.508 23.4177 63.1903 23.4177 81.658C23.4177 100.669 33.8685 110.627 50.8995 110.627C63.6728 110.627 72.5754 105.738 74.8978 95.9614H98.7025C95.7995 116.964 76.6396 130 50.706 130Z" fill="#FC534F"/>
<path d="M558.321 58.1631H504.04V35.8656H481.74V58.1668H504.038V129.995H481.738V35.8619H558.321V58.1631Z" fill="#FC534F"/>
</svg>
