<svg width="100" height="100" viewBox="0 0 100 100" fill="none" xmlns="http://www.w3.org/2000/svg">
<g clip-path="url(#clip0_2017_2)">
<path d="M35.8076 23C39.4101 23 42.8124 23.7172 46.0122 25.1509C49.2114 26.5852 52.0241 28.516 54.4515 30.9427C56.8782 33.3698 58.809 36.2018 60.243 39.4371C61.6773 42.6747 62.3942 46.1305 62.3942 49.807C62.3942 53.4857 61.6944 56.9229 60.2983 60.122C58.9001 63.3211 57.0061 66.1343 54.6165 68.5614C52.2257 70.9882 49.4127 72.9015 46.1772 74.2978C42.94 75.696 39.4478 76.3942 35.6969 76.3942C32.0186 76.3942 28.5626 75.7324 25.3272 74.4086C22.0901 73.0843 19.2598 71.2283 16.8327 68.8374C14.406 66.448 12.4927 63.6353 11.0962 60.3977C9.69838 57.1623 9 53.632 9 49.807C9 46.1305 9.67917 42.6914 11.0408 39.4924C12.4008 36.2932 14.295 33.4989 16.7224 31.1084C19.1492 28.7191 21.9985 26.8058 25.272 25.372C28.5438 23.9378 32.0566 23.148 35.8076 23ZM35.6973 33.9212C33.5633 33.9212 31.5227 34.3264 29.5748 35.1348C27.6255 35.9449 25.9344 37.0656 24.5 38.4997C23.0658 39.9334 21.9248 41.6075 21.0803 43.519C20.2339 45.4323 19.8116 47.5285 19.8116 49.807C19.8116 51.9409 20.2344 53.982 21.0803 55.9299C21.9248 57.8791 23.0658 59.5893 24.5 61.0599C25.9341 62.5316 27.6251 63.69 29.5748 64.5347C31.5227 65.3811 33.5633 65.8034 35.6973 65.8034C37.8295 65.8034 39.8704 65.3807 41.8202 64.5347C43.768 63.69 45.4603 62.5316 46.8949 61.0599C48.329 59.5893 49.4682 57.8796 50.3145 55.9299C51.1592 53.982 51.5829 51.9409 51.5829 49.807C51.3623 45.4687 49.8179 41.8092 46.95 38.8302C44.0814 35.8517 40.3668 34.2158 35.8079 33.9208L35.6973 33.9212Z" fill="#A24689"/>
<g clip-path="url(#clip1_2017_2)">
<path d="M87.39 49.695C87.39 64.4382 75.4382 76.39 60.695 76.39C45.9518 76.39 34 64.4382 34 49.695C34 34.9518 45.9518 23 60.695 23C75.4382 23 87.39 34.9518 87.39 49.695Z" fill="#FC534F"/>
<path d="M69.7086 62.3966H64.475V32.4915H69.7086V62.3966Z" fill="white"/>
<path d="M49.4852 39.9665C55.6504 39.9665 60.1955 43.1168 60.7356 48.3249H55.2454C54.8404 45.8049 52.4552 44.4186 49.305 44.4186C45.3448 44.4186 43.0043 46.8968 43.0043 51.181C43.0044 55.591 45.4347 57.901 49.3949 57.901C52.365 57.901 54.4354 56.7668 54.9753 54.4988H60.5108C59.8357 59.3707 55.3804 62.3953 49.3502 62.3954C42.1048 62.3954 37.5594 57.9851 37.5593 51.181C37.5593 44.5027 42.1048 39.9665 49.4852 39.9665Z" fill="white"/>
<path d="M85.5629 39.9717C86.1235 41.4046 86.5633 42.8978 86.8709 44.4389C86.5281 44.4024 86.1695 44.3814 85.7951 44.3768C82.4612 44.3768 80.0163 45.8887 79.6161 48.9546H87.3796C87.3863 49.2006 87.39 49.4474 87.39 49.695C87.39 50.7663 87.325 51.8227 87.2023 52.861H79.5716C79.8382 56.389 82.3723 57.9428 85.973 57.9428C86.012 57.9428 86.0508 57.9413 86.0894 57.9411C85.5948 59.4656 84.9673 60.9301 84.2194 62.3207C77.874 61.7238 74.1931 57.5675 74.1931 51.4746C74.1932 44.9602 78.3053 40.1461 85.5629 39.9717Z" fill="white"/>
</g>
</g>
<defs>
<clipPath id="clip0_2017_2">
<rect width="100" height="100" fill="white"/>
</clipPath>
<clipPath id="clip1_2017_2">
<rect width="53.39" height="53.39" fill="white" transform="translate(34 23)"/>
</clipPath>
</defs>
</svg>
